<svg width="24" height="24" viewBox="0 0 24 24" fill="none" xmlns="http://www.w3.org/2000/svg">
<g clip-path="url(#clip0_414_72)">
<path d="M23.9999 23C23.9999 23.2652 23.8946 23.5196 23.707 23.7071C23.5195 23.8946 23.2651 24 22.9999 24H0.999903C0.734686 24 0.480332 23.8946 0.292796 23.7071C0.105259 23.5196 -9.74464e-05 23.2652 -9.74464e-05 23C-9.74464e-05 22.7348 0.105259 22.4804 0.292796 22.2929C0.480332 22.1054 0.734686 22 0.999903 22H22.9999C23.2651 22 23.5195 22.1054 23.707 22.2929C23.8946 22.4804 23.9999 22.7348 23.9999 23ZM0.290903 8.552C0.0754249 8.15232 -0.0244028 7.7005 0.00262298 7.24724C0.0296488 6.79399 0.182458 6.35723 0.443903 5.98599C0.871161 5.35911 1.44335 4.84456 2.1119 4.48599L9.6129 0.581994C10.3502 0.198625 11.1689 -0.00152588 11.9999 -0.00152588C12.8309 -0.00152588 13.6496 0.198625 14.3869 0.581994L21.8869 4.48899C22.5555 4.84756 23.1276 5.36211 23.5549 5.98899C23.8164 6.36023 23.9692 6.79699 23.9962 7.25025C24.0232 7.7035 23.9234 8.15532 23.7079 8.555C23.4759 8.99382 23.128 9.3606 22.702 9.61538C22.276 9.87017 21.7883 10.0032 21.2919 10H20.9999V18H21.9999C22.2651 18 22.5195 18.1054 22.707 18.2929C22.8946 18.4804 22.9999 18.7348 22.9999 19C22.9999 19.2652 22.8946 19.5196 22.707 19.7071C22.5195 19.8946 22.2651 20 21.9999 20H1.9999C1.73469 20 1.48033 19.8946 1.2928 19.7071C1.10526 19.5196 0.999903 19.2652 0.999903 19C0.999903 18.7348 1.10526 18.4804 1.2928 18.2929C1.48033 18.1054 1.73469 18 1.9999 18H2.9999V10H2.7079C2.21106 10.0031 1.72291 9.8697 1.29669 9.61436C0.870474 9.35902 0.522561 8.99154 0.290903 8.552ZM4.9999 18H7.9999V10H4.9999V18ZM9.9999 10V18H13.9999V10H9.9999ZM18.9999 10H15.9999V18H18.9999V10ZM2.0629 7.625C2.12565 7.74067 2.21902 7.83685 2.33278 7.903C2.44655 7.96914 2.57633 8.0027 2.7079 8H21.2919C21.4235 8.0027 21.5533 7.96914 21.667 7.903C21.7808 7.83685 21.8742 7.74067 21.9369 7.625C21.9826 7.54856 22.0047 7.46032 22.0004 7.37137C21.9962 7.28241 21.9657 7.1967 21.9129 7.125C21.6706 6.76491 21.3451 6.46853 20.9639 6.261L13.4639 2.35399C13.0119 2.11942 12.5101 1.99697 12.0009 1.99697C11.4917 1.99697 10.9899 2.11942 10.5379 2.35399L3.0379 6.261C2.65689 6.4692 2.33143 6.76585 2.0889 7.126C2.03599 7.1974 2.00531 7.28282 2.00068 7.37158C1.99606 7.46033 2.0177 7.54848 2.0629 7.625Z" fill="#EAEAE3"/>
</g>
<defs>
<clipPath id="clip0_414_72">
<rect width="24" height="24" fill="white"/>
</clipPath>
</defs>
</svg>
