<svg width="26" height="26" viewBox="0 0 26 26" fill="none" xmlns="http://www.w3.org/2000/svg">
<path d="M25 16.4286V23.2857C25 24.2325 24.4031 25 23.6667 25H2.33333C1.59696 25 1 24.2325 1 23.2857V16.4286M25 16.4286V11.2857C25 9.39217 23.8061 7.85714 22.3333 7.85714H18.3333M25 16.4286H19.6667M1 16.4286V11.2857C1 9.39217 2.19391 7.85714 3.66667 7.85714H7.66667M1 16.4286H6.33333M18.3333 7.85714V4.42857C18.3333 2.53502 17.1395 1 15.6667 1H10.3333C8.86057 1 7.66667 2.53502 7.66667 4.42857V7.85714M18.3333 7.85714H7.66667M19.6667 16.4286H6.33333M19.6667 16.4286V18.1429V14.7143M6.33333 16.4286V14.7143M6.33333 16.4286V18.1429" stroke="#EAEAE3" stroke-width="2" stroke-linecap="round" stroke-linejoin="round"/>
</svg>
